HIERARCHY
ROOT Root
{
  OFFSET 0.0 0.0 0.0
  CHANNELS 6 Xposition Yposition Zposition Zrotation Yrotation Xrotation
  JOINT Hips
  {
    OFFSET 0.0 100.0 0.0
    CHANNELS 6 Xposition Yposition Zposition Zrotation Yrotation Xrotation
    JOINT Spine1
    {
      OFFSET -0.013727 5.003763 -0.053727
      CHANNELS 3 Zrotation Yrotation Xrotation
      JOINT Spine2
      {
        OFFSET -0.0 7.125301 -0.029825
        CHANNELS 3 Zrotation Yrotation Xrotation
        JOINT Chest
        {
          OFFSET -1e-06 7.550063 -0.815971
          CHANNELS 3 Zrotation Yrotation Xrotation
          JOINT Neck1
          {
            OFFSET -0.181677 26.311295 -0.553348
            CHANNELS 3 Zrotation Yrotation Xrotation
            JOINT Neck2
            {
              OFFSET -3e-06 7.709397 2.302585
              CHANNELS 3 Zrotation Yrotation Xrotation
              JOINT Head
              {
                OFFSET -5e-06 6.128916 1.953709
                CHANNELS 3 Zrotation Yrotation Xrotation
                JOINT HeadEnd
                {
                  OFFSET 0.003598 16.065403 -1.835379
                  CHANNELS 3 Zrotation Yrotation Xrotation
                }
                JOINT Jaw
                {
                  OFFSET 0.002637 0.475592 3.094941
                  CHANNELS 3 Zrotation Yrotation Xrotation
                }
                JOINT LeftEye
                {
                  OFFSET 3.206381 5.380205 7.586883
                  CHANNELS 3 Zrotation Yrotation Xrotation
                }
                JOINT RightEye
                {
                  OFFSET -3.22244 5.361869 7.558234
                  CHANNELS 3 Zrotation Yrotation Xrotation
                }
              }
            }
          }
          JOINT LeftShoulder
          {
            OFFSET 1.621652 23.237164 5.113413
            CHANNELS 3 Zrotation Yrotation Xrotation
            JOINT LeftArm
            {
              OFFSET 14.919846 2e-06 -5.502326
              CHANNELS 3 Zrotation Yrotation Xrotation
              JOINT LeftForeArm
              {
                OFFSET 28.739307 0.0 -0.002588
                CHANNELS 3 Zrotation Yrotation Xrotation
                JOINT LeftHand
                {
                  OFFSET 27.093981 -1e-06 0.002609
                  CHANNELS 3 Zrotation Yrotation Xrotation
                  JOINT LeftHandThumb1
                  {
                    OFFSET 2.276482 -1.392045 3.191413
                    CHANNELS 3 Zrotation Yrotation Xrotation
                    JOINT LeftHandThumb2
                    {
                      OFFSET 4.012836 -1.828127 1.641654
                      CHANNELS 3 Zrotation Yrotation Xrotation
                      JOINT LeftHandThumb3
                      {
                        OFFSET 2.798515 0.0 -3e-06
                        CHANNELS 3 Zrotation Yrotation Xrotation
                        JOINT LeftHandThumbEnd
                        {
                          OFFSET 3.180793 -4e-06 4e-06
                          CHANNELS 3 Zrotation Yrotation Xrotation
                        }
                      }
                    }
                  }
                  JOINT LeftHandIndex1
                  {
                    OFFSET 3.247555 -0.531998 2.296169
                    CHANNELS 3 Zrotation Yrotation Xrotation
                    JOINT LeftHandIndex2
                    {
                      OFFSET 6.364578 0.01206 0.1786
                      CHANNELS 3 Zrotation Yrotation Xrotation
                      JOINT LeftHandIndex3
                      {
                        OFFSET 3.662364 0.0 0.0
                        CHANNELS 3 Zrotation Yrotation Xrotation
                        JOINT LeftHandIndex4
                        {
                          OFFSET 2.329242 4e-06 4e-06
                          CHANNELS 3 Zrotation Yrotation Xrotation
                          JOINT LeftHandIndexEnd
                          {
                            OFFSET 2.759615 -0.180537 -0.113024
                            CHANNELS 3 Zrotation Yrotation Xrotation
                          }
                        }
                      }
                    }
                  }
                  JOINT LeftHandMiddle1
                  {
                    OFFSET 3.163495 0.240981 1.000332
                    CHANNELS 3 Zrotation Yrotation Xrotation
                    JOINT LeftHandMiddle2
                    {
                      OFFSET 6.19078 -0.259278 -1.002548
                      CHANNELS 3 Zrotation Yrotation Xrotation
                      JOINT LeftHandMiddle3
                      {
                        OFFSET 4.35652 -4e-06 -1e-06
                        CHANNELS 3 Zrotation Yrotation Xrotation
                        JOINT LeftHandMiddle4
                        {
                          OFFSET 2.996877 -8e-06 0.0
                          CHANNELS 3 Zrotation Yrotation Xrotation
                          JOINT LeftHandMiddleEnd
                          {
                            OFFSET 2.304287 -0.294569 -0.031741
                            CHANNELS 3 Zrotation Yrotation Xrotation
                          }
                        }
                      }
                    }
                  }
                  JOINT LeftHandRing1
                  {
                    OFFSET 2.882643 -0.053652 -0.322543
                    CHANNELS 3 Zrotation Yrotation Xrotation
                    JOINT LeftHandRing2
                    {
                      OFFSET 5.854541 -0.486202 -1.373841
                      CHANNELS 3 Zrotation Yrotation Xrotation
                      JOINT LeftHandRing3
                      {
                        OFFSET 4.350578 0.0 3e-06
                        CHANNELS 3 Zrotation Yrotation Xrotation
                        JOINT LeftHandRing4
                        {
                          OFFSET 2.651321 7e-06 2e-06
                          CHANNELS 3 Zrotation Yrotation Xrotation
                          JOINT LeftHandRingEnd
                          {
                            OFFSET 1.936105 0.077687 -7.1e-05
                            CHANNELS 3 Zrotation Yrotation Xrotation
                          }
                        }
                      }
                    }
                  }
                  JOINT LeftHandPinky1
                  {
                    OFFSET 2.8655 -0.310005 -1.600378
                    CHANNELS 3 Zrotation Yrotation Xrotation
                    JOINT LeftHandPinky2
                    {
                      OFFSET 5.087849 -1.331141 -1.77123
                      CHANNELS 3 Zrotation Yrotation Xrotation
                      JOINT LeftHandPinky3
                      {
                        OFFSET 3.070974 4e-06 0.0
                        CHANNELS 3 Zrotation Yrotation Xrotation
                        JOINT LeftHandPinky4
                        {
                          OFFSET 1.549672 0.0 1e-06
                          CHANNELS 3 Zrotation Yrotation Xrotation
                          JOINT LeftHandPinkyEnd
                          {
                            OFFSET 1.944893 -0.157802 0.057219
                            CHANNELS 3 Zrotation Yrotation Xrotation
                          }
                        }
                      }
                    }
                  }
                }
              }
            }
          }
          JOINT RightShoulder
          {
            OFFSET -1.380118 23.180309 5.214158
            CHANNELS 3 Zrotation Yrotation Xrotation
            JOINT RightArm
            {
              OFFSET -15.037196 1.2e-05 -5.545604
              CHANNELS 3 Zrotation Yrotation Xrotation
              JOINT RightForeArm
              {
                OFFSET -28.736639 2e-06 -0.002597
                CHANNELS 3 Zrotation Yrotation Xrotation
                JOINT RightHand
                {
                  OFFSET -27.133619 -0.0 0.002613
                  CHANNELS 3 Zrotation Yrotation Xrotation
                  JOINT RightHandThumb1
                  {
                    OFFSET -2.274032 -1.383988 3.163127
                    CHANNELS 3 Zrotation Yrotation Xrotation
                    JOINT RightHandThumb2
                    {
                      OFFSET -4.011429 -1.827466 1.640914
                      CHANNELS 3 Zrotation Yrotation Xrotation
                      JOINT RightHandThumb3
                      {
                        OFFSET -2.794935 -4e-06 -3e-06
                        CHANNELS 3 Zrotation Yrotation Xrotation
                        JOINT RightHandThumbEnd
                        {
                          OFFSET -3.183852 4e-06 1e-06
                          CHANNELS 3 Zrotation Yrotation Xrotation
                        }
                      }
                    }
                  }
                  JOINT RightHandIndex1
                  {
                    OFFSET -3.253266 -0.520057 2.282866
                    CHANNELS 3 Zrotation Yrotation Xrotation
                    JOINT RightHandIndex2
                    {
                      OFFSET -6.341917 0.012471 0.178266
                      CHANNELS 3 Zrotation Yrotation Xrotation
                      JOINT RightHandIndex3
                      {
                        OFFSET -3.654871 -8e-06 -0.0
                        CHANNELS 3 Zrotation Yrotation Xrotation
                        JOINT RightHandIndex4
                        {
                          OFFSET -2.327586 0.0 1e-06
                          CHANNELS 3 Zrotation Yrotation Xrotation
                          JOINT RightHandIndexEnd
                          {
                            OFFSET -2.76179 -0.180656 -0.113078
                            CHANNELS 3 Zrotation Yrotation Xrotation
                          }
                        }
                      }
                    }
                  }
                  JOINT RightHandMiddle1
                  {
                    OFFSET -3.168106 0.246593 1.00103
                    CHANNELS 3 Zrotation Yrotation Xrotation
                    JOINT RightHandMiddle2
                    {
                      OFFSET -6.180828 -0.258836 -1.000895
                      CHANNELS 3 Zrotation Yrotation Xrotation
                      JOINT RightHandMiddle3
                      {
                        OFFSET -4.348901 0.0 -0.0
                        CHANNELS 3 Zrotation Yrotation Xrotation
                        JOINT RightHandMiddle4
                        {
                          OFFSET -3.00024 -4e-06 -2e-06
                          CHANNELS 3 Zrotation Yrotation Xrotation
                          JOINT RightHandMiddleEnd
                          {
                            OFFSET -2.30252 -0.29437 -0.031706
                            CHANNELS 3 Zrotation Yrotation Xrotation
                          }
                        }
                      }
                    }
                  }
                  JOINT RightHandRing1
                  {
                    OFFSET -2.88569 -0.067952 -0.308858
                    CHANNELS 3 Zrotation Yrotation Xrotation
                    JOINT RightHandRing2
                    {
                      OFFSET -5.854198 -0.48613 -1.373731
                      CHANNELS 3 Zrotation Yrotation Xrotation
                      JOINT RightHandRing3
                      {
                        OFFSET -4.33881 -4e-06 -0.0
                        CHANNELS 3 Zrotation Yrotation Xrotation
                        JOINT RightHandRing4
                        {
                          OFFSET -2.654903 -4e-06 4e-06
                          CHANNELS 3 Zrotation Yrotation Xrotation
                          JOINT RightHandRingEnd
                          {
                            OFFSET -1.933568 0.077527 -5.2e-05
                            CHANNELS 3 Zrotation Yrotation Xrotation
                          }
                        }
                      }
                    }
                  }
                  JOINT RightHandPinky1
                  {
                    OFFSET -2.866425 -0.342796 -1.584145
                    CHANNELS 3 Zrotation Yrotation Xrotation
                    JOINT RightHandPinky2
                    {
                      OFFSET -5.091371 -1.332055 -1.772385
                      CHANNELS 3 Zrotation Yrotation Xrotation
                      JOINT RightHandPinky3
                      {
                        OFFSET -3.062664 -4e-06 1e-06
                        CHANNELS 3 Zrotation Yrotation Xrotation
                        JOINT RightHandPinky4
                        {
                          OFFSET -1.546529 4e-06 -2e-06
                          CHANNELS 3 Zrotation Yrotation Xrotation
                          JOINT RightHandPinkyEnd
                          {
                            OFFSET -1.945119 -0.157718 0.057211
                            CHANNELS 3 Zrotation Yrotation Xrotation
                          }
                        }
                      }
                    }
                  }
                }
              }
            }
          }
        }
      }
    }
    JOINT LeftLeg
    {
      OFFSET 10.043214 -8.434526 2.595655
      CHANNELS 3 Zrotation Yrotation Xrotation
      JOINT LeftShin
      {
        OFFSET -1e-06 -43.221752 -0.802913
        CHANNELS 3 Zrotation Yrotation Xrotation
        JOINT LeftFoot
        {
          OFFSET 1e-06 -42.155094 -3.481523
          CHANNELS 3 Zrotation Yrotation Xrotation
          JOINT LeftToeBase
          {
            OFFSET 0.0 -5.059472 13.231529
            CHANNELS 3 Zrotation Yrotation Xrotation
            JOINT LeftToeEnd
            {
              OFFSET -0.009607 -1.647619 6.513017
              CHANNELS 3 Zrotation Yrotation Xrotation
            }
          }
        }
      }
    }
    JOINT RightLeg
    {
      OFFSET -10.047278 -8.29526 2.620317
      CHANNELS 3 Zrotation Yrotation Xrotation
      JOINT RightShin
      {
        OFFSET 1e-06 -43.362206 -0.805556
        CHANNELS 3 Zrotation Yrotation Xrotation
        JOINT RightFoot
        {
          OFFSET 2e-06 -42.117393 -3.478398
          CHANNELS 3 Zrotation Yrotation Xrotation
          JOINT RightToeBase
          {
            OFFSET -0.0 -5.079609 13.284196
            CHANNELS 3 Zrotation Yrotation Xrotation
            JOINT RightToeEnd
            {
              OFFSET 0.009532 -1.634378 6.460591
              CHANNELS 3 Zrotation Yrotation Xrotation
            }
          }
        }
      }
    }
  }
}
MOTION
Frames: 4
Frame Time: 0.03333333333333333
0.0 0.0 0.0 0.0 -0.0 0.0 2.563195 97.868851 1.577648 -2.599403 -0.656806 5.28459 0.895505 -0.477351 1.497805 -0.235133 -3.171388 -4.408541 1.572144 -5.365789 11.629237 -2.138067 2.231578 -9.435446 -0.860214 -0.193805 -3.469119 0.952765 -2.057935 -22.957869 7.7e-05 -2.2e-05 7e-06 0.075236 0.124821 0.016721 0.669012 -3.651853 -10.556558 -0.524506 3.912269 -10.563373 -1.908477 -11.671849 14.021922 -25.076351 -43.273579 9.964861 -1.287301 -40.246685 0.747518 21.403732 8.293533 6.105795 -5.882109 9.861286 0.70259 -10.936877 -0.360574 7.156205 3e-06 8.774827 -0.0 -17.701355 18.779816 6.047154 -1.844032 2.498504 -2.507279 -10.163606 4.678946 4.621109 -20.976036 -5e-06 0.0 -21.226295 2.451695 -3.594 -0.0 -6e-06 -1e-06 -1.362681 2.240798 -0.746324 -21.334923 0.584909 3.008321 -13.82122 -4e-06 1e-06 -23.887182 -0.249082 -0.839485 -61.029934 2.261758 -0.363947 -0.294025 1.679688 0.833257 -14.218215 0.093215 1.300579 -34.212063 -0.287567 0.967167 -20.033222 0.964534 1.212843 -0.0 -0.0 -0.0 -3.44039 0.788233 0.501655 -15.928192 -3.16731 2.999705 -6.338829 -2e-06 0.0 -18.123453 3.648181 -4.905673 -4e-06 -0.0 -2e-06 12.579418 3.397365 19.203022 55.274578 1.513416 4.823647 7.94638 77.882004 8.133789 -2.876437 -7.412119 0.310357 2.243543 -5.255037 -3.180159 14.282896 -0.826596 6.952503 -3e-06 -12.69061 0.0 15.420131 -17.51687 3.432793 1.665667 -1.955922 -2.878299 4.7278 -4.170592 4.993926 11.020531 2e-06 -3e-06 12.109056 -3.735717 -2.866786 -0.0 0.0 -0.0 1.291986 -1.92855 -1.49809 14.800132 0.567469 3.865607 14.242577 -1.341735 -6.660662 19.631969 0.143928 -0.648248 50.3899 -0.778091 -5.865136 0.35303 -1.511152 -0.031939 20.222801 3.684312 2.316628 18.787283 7e-06 -4e-06 10.751633 -0.479868 1.397904 1e-06 -0.0 -1e-06 3.273808 0.305946 -0.580113 21.48682 11.830379 2.26613 8.162929 2e-06 -2e-06 18.399088 -3.798985 -4.940578 2e-06 -1e-06 -2e-06 11.704198 7.561052 -13.921429 -0.072171 -0.702128 46.777683 -2.475922 21.251835 7.873474 2.135234 -2.270928 -6.312418 0.0 0.0 0.0 6.625421 -5.247835 -21.570883 -0.111405 -0.321117 25.368307 -0.961839 -14.401344 -9.745467 -1.380396 1.026098 -0.960774 -0.0 0.0 -1e-06 
0.0 0.0 0.0 0.0 -0.0 0.0 2.236746 98.180855 2.931521 -2.646225 -3.854442 5.225888 1.234379 -0.386575 1.818752 -0.165992 -2.794715 -4.354341 1.096331 -4.91156 11.62706 -2.29212 2.238003 -9.598423 -0.620944 0.534188 -3.477776 1.314097 -1.572024 -23.126163 7.7e-05 -2.2e-05 6e-06 0.08592 0.168116 0.001282 0.670215 -3.626469 -10.556894 -0.506537 3.967926 -10.557936 -4.141138 -10.984257 14.966908 -27.51022 -39.399281 10.219487 -1.182114 -42.209831 0.929197 23.570889 6.154893 2.643349 -5.88211 9.861288 0.70259 -10.936877 -0.360574 7.156209 -0.0 8.774826 0.0 -17.332333 18.865194 6.075234 -1.844033 2.498505 -2.507279 -10.163606 4.678948 4.62111 -20.97603 -2e-06 1e-06 -21.226297 2.451697 -3.594003 0.0 -6e-06 -1e-06 -1.362682 2.240799 -0.746324 -21.334925 0.584911 3.008324 -13.82122 -2e-06 1e-06 -23.887182 -0.249079 -0.839484 -60.682056 2.209004 -0.497165 -0.294025 1.679687 0.833256 -14.218215 0.093216 1.300581 -34.212067 -0.287562 0.967169 -20.033222 0.964537 1.212843 0.0 -0.0 0.0 -3.440391 0.788234 0.501656 -15.928192 -3.167308 2.999708 -6.33883 -0.0 1e-06 -18.123457 3.648183 -4.905673 -4e-06 0.0 -2e-06 9.553753 4.151474 18.891447 55.441776 6.077087 8.511223 11.630968 81.312347 11.54869 -3.808391 -7.396891 -2.576774 2.243542 -5.255038 -3.180159 14.282896 -0.826596 6.952507 -3e-06 -12.690604 2e-06 15.468254 -17.748838 3.408806 1.665667 -1.955923 -2.878299 4.7278 -4.170588 4.993927 11.020529 2e-06 -2e-06 12.109056 -3.735717 -2.866784 -1e-06 0.0 -1e-06 1.291986 -1.92855 -1.498089 14.800132 0.567467 3.865609 14.242577 -1.341734 -6.660658 19.631971 0.143925 -0.648244 50.882542 -0.785141 -5.884876 0.353029 -1.51115 -0.03194 20.222797 3.684307 2.316629 18.787279 4e-06 -2e-06 10.751631 -0.479868 1.397907 2e-06 0.0 1e-06 3.273808 0.305946 -0.580112 21.48682 11.830376 2.266134 8.16293 0.0 -1e-06 18.399088 -3.798987 -4.940578 4e-06 0.0 -0.0 10.372985 8.664826 -17.063135 -0.073539 -0.416609 49.419102 -4.640618 18.140474 5.359883 2.069642 -2.262857 -5.53347 0.0 -1e-06 3e-06 6.644041 -3.075419 -19.650225 -0.096333 -0.341211 23.483477 -1.058118 -13.344833 -9.467957 -1.392007 1.065623 -0.692671 -0.0 0.0 -1e-06 
0.0 0.0 0.0 0.0 -0.0 0.0 1.813753 98.533821 5.63309 -2.336066 -7.733424 5.526835 1.487015 -0.212193 1.966977 -0.118518 -2.173422 -4.295357 0.49804 -4.220128 11.630415 -2.556857 2.338679 -9.757304 -0.403172 1.079826 -3.505848 1.71226 -0.973509 -23.010551 7.7e-05 -2.2e-05 6e-06 0.087056 0.172956 0.013421 0.663976 -3.63553 -10.563709 -0.500276 3.980975 -10.558697 -6.923018 -10.177149 16.16814 -29.532061 -33.960045 11.577293 -0.529522 -45.374683 0.501228 24.922909 5.00562 0.428855 -5.882113 9.861291 0.702592 -10.936883 -0.360572 7.156209 -1e-06 8.77483 1e-06 -16.97526 18.857685 5.948454 -1.844034 2.498505 -2.507278 -10.16361 4.678949 4.621112 -20.976044 1e-06 3e-06 -21.226307 2.451702 -3.594002 0.0 -6e-06 -0.0 -1.362683 2.2408 -0.746322 -21.334936 0.584914 3.008324 -13.821227 -1e-06 2e-06 -23.887192 -0.249075 -0.839484 -60.250751 2.231027 -0.821574 -0.294025 1.679688 0.833257 -14.218221 0.093217 1.300582 -34.212078 -0.287558 0.967171 -20.03323 0.96454 1.212843 0.0 0.0 -0.0 -3.440391 0.788234 0.501656 -15.928203 -3.167308 2.999709 -6.338833 -0.0 1e-06 -18.123465 3.648186 -4.905673 -4e-06 1e-06 -2e-06 5.932002 5.499501 18.170847 54.503094 11.883847 13.73107 15.981268 84.918701 15.820448 -4.682619 -6.409173 -4.121373 2.243543 -5.255039 -3.18016 14.282893 -0.826597 6.952503 -3e-06 -12.690607 1e-06 15.582517 -17.974323 3.299611 1.665667 -1.955923 -2.878299 4.727798 -4.170592 4.993927 11.020526 5e-06 -4e-06 12.109054 -3.735718 -2.866786 -0.0 -1e-06 1e-06 1.291986 -1.928549 -1.49809 14.800129 0.567468 3.865606 14.242576 -1.341735 -6.660662 19.631969 0.143926 -0.648248 51.100529 -0.818675 -5.884845 0.35303 -1.511151 -0.031941 20.222792 3.684312 2.316629 18.787273 4e-06 -4e-06 10.751631 -0.479871 1.397905 -1e-06 2e-06 -0.0 3.273807 0.305947 -0.580111 21.486816 11.830379 2.26613 8.162929 2e-06 -0.0 18.399086 -3.798985 -4.94058 4e-06 1e-06 -2e-06 8.089102 9.989978 -21.208542 -0.028533 -0.151543 50.412582 -6.796033 14.254949 3.476987 1.929782 -2.13686 -5.588266 -0.0 0.0 1e-06 6.173879 -0.856071 -17.231911 -0.054407 -0.310885 21.559889 -0.78148 -11.516573 -10.013361 -1.392717 1.109055 -0.672134 -0.0 0.0 -1e-06 
0.0 0.0 0.0 0.0 -0.0 0.0 1.60461 98.935577 8.263274 -1.635539 -12.052472 5.92695 1.543081 0.021772 2.016032 -0.095716 -1.331288 -4.271978 -0.186386 -3.306835 11.704013 -2.975514 2.472998 -10.08046 -0.254321 1.570026 -3.551708 2.002283 -0.327381 -22.567045 7.7e-05 -2.2e-05 7e-06 0.094189 0.189387 0.010332 0.676051 -3.621624 -10.599169 -0.500098 3.994398 -10.592657 -9.79109 -9.005334 17.232861 -30.728823 -27.854948 14.478449 0.158964 -48.720478 -0.25542 24.932884 5.395087 0.069273 -5.882112 9.86129 0.702591 -10.936878 -0.360574 7.156211 -0.0 8.774828 0.0 -16.641148 18.716185 5.873355 -1.844035 2.498506 -2.507279 -10.163609 4.678948 4.621112 -20.97604 -4e-06 1e-06 -21.226301 2.451696 -3.594002 0.0 -6e-06 0.0 -1.362683 2.240799 -0.746324 -21.33493 0.58491 3.008325 -13.821223 -3e-06 2e-06 -23.887188 -0.249081 -0.839483 -60.007645 2.254662 -0.968425 -0.294025 1.679688 0.833257 -14.218219 0.093215 1.300582 -34.212078 -0.287565 0.96717 -20.03323 0.964537 1.212844 0.0 0.0 0.0 -3.440392 0.788234 0.501656 -15.928201 -3.167311 2.999709 -6.33883 -1e-06 1e-06 -18.123463 3.648185 -4.905674 -5e-06 -1e-06 -2e-06 2.374427 7.438384 17.212765 51.982491 18.361361 17.485664 40.779789 88.084602 40.70787 -5.796388 -4.964646 -4.264865 2.243544 -5.25504 -3.18016 14.282902 -0.826597 6.952508 -2e-06 -12.690611 1e-06 15.663357 -18.028427 3.136706 1.665668 -1.955924 -2.878302 4.727804 -4.170589 4.993927 11.020533 5e-06 -2e-06 12.10906 -3.735716 -2.866787 -1e-06 -1e-06 -1e-06 1.291987 -1.928552 -1.498091 14.800139 0.567468 3.865611 14.242584 -1.341736 -6.660663 19.631979 0.143926 -0.648246 51.078014 -0.82036 -5.838017 0.353029 -1.511152 -0.031941 20.222805 3.68431 2.316631 18.787287 5e-06 -2e-06 10.751636 -0.479869 1.397907 0.0 0.0 1e-06 3.273809 0.305946 -0.580112 21.48683 11.830382 2.266134 8.162935 2e-06 -1e-06 18.399096 -3.798987 -4.940578 3e-06 1e-06 -1e-06 5.291542 10.884611 -25.389135 0.029767 0.009445 48.944248 -8.714865 10.740021 2.628227 1.819715 -2.029615 -5.847728 0.0 0.0 3e-06 5.004899 1.342984 -15.12305 0.005042 -0.220947 19.544138 -0.238008 -9.415236 -10.338825 -1.388351 1.099999 -0.870874 -0.0 0.0 -1e-06 
